<?xml version="1.0" encoding="UTF-8"?>
<svg width="770px" height="787px" viewBox="0 0 770 787" version="1.1" xmlns="http://www.w3.org/2000/svg" xmlns:xlink="http://www.w3.org/1999/xlink">
    <!-- Generator: Sketch 61.2 (89653) - https://sketch.com -->
    <title>currency@2x</title>
    <desc>Created with Sketch.</desc>
    <g id="Page-1" stroke="none" stroke-width="1" fill="none" fill-rule="evenodd">
        <g id="Artboard" transform="translate(-2999.000000, -903.000000)">
            <g id="currency" transform="translate(3006.000000, 910.000000)">
                <path d="M387.479365,337.586689 C377.115954,333.96891 366.457923,332.212829 355.933176,332.212829 C328.25389,332.210381 301.483231,344.337152 283.313942,366.607498 C282.095189,368.095231 279.831896,371.139207 279.831896,371.139207 C276.459004,375.549159 272.331018,381.372683 268.14495,388.472854 C268.174803,388.404363 268.204656,388.335871 268.233938,388.26738 C268.19762,388.347286 268.160921,388.427193 268.123843,388.509002 C259.205504,402.75686 247.696538,426.176972 246.829272,455.939044 L263.292311,434.525292 C280.156907,406.436264 276.032573,411.651148 281.326164,405.508088 C303.736971,379.491878 332.222649,371.05442 344.612842,368.19399 C336.69005,370.984418 327.822149,374.937258 318.69195,380.629059 C291.766514,397.411503 276.826983,420.410835 269.145842,435.280005 C268.231787,437.049542 269.244324,439.207381 271.192408,439.617756 C276.244343,440.681953 282.595406,441.584542 289.853754,441.585184 C294.750975,441.585617 300.059717,441.175694 305.662807,440.127471 C337.673179,434.139364 356.15511,411.644918 363.537233,402.659544 C382.988994,378.983282 387.996175,353.562952 389.486081,340.769933 C389.647613,339.369626 388.81069,338.051043 387.479365,337.586689 Z" id="Fill-3" fill="#00E8C0" transform="translate(318.167614, 394.075937) scale(-1, 1) rotate(-61.000000) translate(-318.167614, -394.075937) "></path>
                <g id="Group" stroke="#FFFFFF" stroke-linejoin="round" stroke-width="13">
                    <g id="Group-8" transform="translate(121.935484, 467.773364)">
                        <path d="M129.638958,0 L96.2243772,0 C50.0770223,0 29.3808933,16.1054254 29.3808933,71.011576 L29.3808933,85.2138912 C29.3808933,140.120042 50.0770223,156.225467 96.2243772,156.225467 L129.638958,156.225467" id="Stroke-43"></path>
                        <line x1="0.477667494" y1="56.4398364" x2="86.2841191" y2="56.4398364" id="Stroke-44"></line>
                        <line x1="0.477667494" y1="99.7856308" x2="86.2841191" y2="99.7856308" id="Stroke-45"></line>
                    </g>
                    <g id="Group-6" transform="translate(497.956465, 274.523364)">
                        <polyline id="Stroke-46" points="0.624180435 0 0.624180435 15.0506231 47.5919224 90.3037383"></polyline>
                        <polyline id="Stroke-47" points="92.7532127 0 92.7532127 15.0506231 47.5919224 90.3037383"></polyline>
                        <line x1="48.0435353" y1="90.3037383" x2="48.0435353" y2="194.153037" id="Stroke-48"></line>
                        <line x1="0.624180435" y1="119.652453" x2="91.8499869" y2="119.652453" id="Stroke-49"></line>
                        <line x1="0.624180435" y1="165.255841" x2="91.8499869" y2="165.255841" id="Stroke-50"></line>
                    </g>
                    <g id="Group-7" transform="translate(177.032258, 71.339953)">
                        <path d="M101.989813,41.5397196 L44.1833616,41.5397196 C28.2143294,41.5397196 15.2801358,54.5722423 15.2801358,70.6626752 L15.2801358,70.6626752 C15.2801358,86.7531082 28.2143294,99.7856308 44.1833616,99.7856308 L58.6349745,99.7856308 C74.6040068,99.7856308 87.5382003,112.818153 87.5382003,128.908586 L87.5382003,128.908586 C87.5382003,144.999019 74.6040068,158.031542 58.6349745,158.031542 L0.82852292,158.031542" id="Stroke-51"></path>
                        <line x1="56.37691" y1="157.128505" x2="56.37691" y2="200.474299" id="Stroke-52"></line>
                        <line x1="56.37691" y1="41.5397196" x2="56.37691" y2="0" id="Stroke-53"></line>
                    </g>
                    <path d="M420,618.255514 C394.049951,707.663439 311.760529,773 214.250735,773 C95.9157689,773 0,676.783317 0,558.077103 C0,439.388082 95.9157689,343.154206 214.250735,343.154206 C236.429971,343.154206 257.837904,346.54139 277.960333,352.817139" id="Stroke-54"></path>
                    <path d="M484.360282,158.553741 C499.670727,155.252792 515.567384,153.516355 531.860594,153.516355 C655.654512,153.516355 756,253.57637 756,377.018107 C756,500.459845 655.654512,600.51986 531.860594,600.51986 C445.635889,600.51986 370.790569,551.968402 333.290323,480.79169" id="Stroke-55"></path>
                    <path d="M60.1204439,341.789896 C33.1548903,306.088156 17.1612903,261.721609 17.1612903,213.629366 C17.1612903,95.654685 113.398049,0 232.129032,0 C350.860015,0 447.096774,95.654685 447.096774,213.629366 C447.096774,275.496431 420.629946,331.22806 378.324294,370.245327" id="Stroke-56"></path>
                </g>
            </g>
        </g>
    </g>
</svg>