<?xml version="1.0" encoding="UTF-8"?>
<svg width="761px" height="535px" viewBox="0 0 761 535" version="1.1" xmlns="http://www.w3.org/2000/svg" xmlns:xlink="http://www.w3.org/1999/xlink">
    <!-- Generator: Sketch 61.2 (89653) - https://sketch.com -->
    <title>notification@2x</title>
    <desc>Created with Sketch.</desc>
    <g id="Page-1" stroke="none" stroke-width="1" fill="none" fill-rule="evenodd">
        <g id="Artboard" transform="translate(-730.000000, -1979.000000)">
            <g id="notification" transform="translate(730.000000, 1979.000000)">
                <path d="M531.3402,535 L101.666833,535 C45.6041333,535 0,489.356299 0,433.244958 L0,161.755042 C0,105.65074 45.6111667,60 101.666833,60 L531.3402,60 C587.395867,60 633,105.65074 633,161.755042 L633,433.244958 C633,489.356299 587.395867,535 531.3402,535 Z M94.8093481,83.5051546 C53.8758136,83.5051546 20.5773994,116.849389 20.5773994,157.83925 L20.5773994,438.132863 C20.5773994,479.122724 53.8758136,512.474227 94.8093481,512.474227 L538.190652,512.474227 C579.124186,512.474227 612.422601,479.122724 612.422601,438.132863 L612.422601,157.83925 C612.422601,116.849389 579.124186,83.5051546 538.190652,83.5051546 L94.8093481,83.5051546 Z" id="Shape" fill="#FFFFFF" fill-rule="nonzero"></path>
                <g id="Group-11" transform="translate(542.000000, 0.000000)">
                    <ellipse id="Oval" fill="#2FEAC5" fill-rule="nonzero" cx="109.5" cy="110" rx="109.5" ry="110"></ellipse>
                    <g id="Group-10" transform="translate(49.861607, 23.571429)" fill="#33B399">
                        <path d="M95.8019138,71.3848768 C103.926939,47.6650541 104.555206,23.9223552 99.1304863,4.26144325 C98.4114861,1.65238419 95.9421603,-0.096669727 93.1702677,0.00414056992 C54.3243955,1.42608119 18.3169175,26.3127816 5.12920714,64.9357168 C-1.73620418,84.8378051 -1.46447427,105.461782 4.481125,123.945334 C5.68782654,127.697015 11.180082,127.519275 12.2405642,123.71399 C21.6865539,89.8110049 44.0625579,57.9474266 65.5201021,46.9156556 C44.9105738,57.5537892 25.8744948,97.9271961 19.7347388,133.816312 C18.9482317,138.407161 23.211238,142.324987 27.8592487,141.24882 C55.9656028,134.741048 83.1568201,108.328102 95.8019138,71.3848768" id="Fill-2"></path>
                        <path d="M78.9993373,169.613895 C93.8394142,166.900168 106.521891,160.216835 115.303485,151.539923 C116.469082,150.388935 116.675317,148.566824 115.820024,147.131366 C103.828941,127.017281 80.3050086,115.336909 56.1531719,119.777998 C43.6876974,122.029511 32.9077126,128.267076 24.8967518,136.871446 C23.2707057,138.617856 24.9538061,141.468587 27.264223,140.90479 C47.8480872,135.880437 71.1002823,138.293592 83.1186144,146.376578 C71.5529595,138.625549 44.7869083,140.49237 24.1141969,147.851281 C21.4694682,148.792021 20.6404741,152.20311 22.5522671,154.342102 C34.11293,167.276443 55.8889155,173.845499 78.9993373,169.613895" id="Fill-2"></path>
                    </g>
                </g>
                <g id="Group-9" transform="translate(99.000000, 152.000000)" fill="#FFFFFF" fill-rule="nonzero">
                    <path d="M4.10031284,23.2051571 C71.5945128,88.9556608 139.088713,154.699919 206.582913,220.450423 C219.164671,232.703699 238.474609,213.443198 225.874109,201.164941 C158.379909,135.420682 90.8857095,69.6701787 23.3915096,3.92592031 C10.8097511,-8.33360084 -8.50018709,10.9331453 4.10031284,23.2051571 L4.10031284,23.2051571 Z" id="Path"></path>
                    <path d="M225.488816,220.448644 C292.984068,154.704675 360.479321,88.9544601 427.974573,23.2104909 C440.569022,10.9385332 421.271278,-8.33437352 408.683076,3.92509371 C341.187823,69.6690629 273.692571,135.419277 206.197318,201.163246 C193.602869,213.435204 212.900614,232.708111 225.488816,220.448644 L225.488816,220.448644 Z" id="Path"></path>
                    <path d="M427.872015,267.865933 C382.825225,225.250304 337.772169,182.640925 292.725379,140.025295 C279.948858,127.943158 260.567898,147.207072 273.375749,159.326712 C318.422539,201.942342 363.475596,244.551721 408.522386,287.167351 C421.298906,299.249488 440.679866,279.979323 427.872015,267.865933 L427.872015,267.865933 Z" id="Path"></path>
                    <path d="M24.4206094,287.162468 C69.4683931,244.548725 114.522443,201.941231 159.570227,159.327488 C172.372094,147.214635 153.003239,127.939072 140.22017,140.026925 C95.1723865,182.640668 50.1183366,225.248162 5.07055288,267.861905 C-7.73131415,279.974758 11.637541,299.256571 24.4206094,287.162468 L24.4206094,287.162468 Z" id="Path"></path>
                </g>
            </g>
        </g>
    </g>
</svg>