<?xml version="1.0" encoding="UTF-8"?>
<svg width="220px" height="74px" viewBox="0 0 220 74" version="1.1" xmlns="http://www.w3.org/2000/svg" xmlns:xlink="http://www.w3.org/1999/xlink">
    <!-- Generator: Sketch 61.2 (89653) - https://sketch.com -->
    <title>passiv-fullname</title>
    <desc>Created with Sketch.</desc>
    <g id="Page-1" stroke="none" stroke-width="1" fill="none" fill-rule="evenodd">
        <g id="Final-Logo" transform="translate(-1756.000000, -1080.000000)">
            <g id="passiv-fullname" transform="translate(1756.000000, 1076.000000)">
                <g id="Group" transform="translate(155.000000, 20.000000) scale(-1, 1) rotate(5.000000) translate(-155.000000, -20.000000) translate(128.000000, 3.000000)" fill="#04A287">
                    <path d="M2.73027484,13.7897529 C1.04492029,10.7198528 0.382198415,7.46659866 0.644805021,4.62973238 C0.679534171,4.25329318 0.97405405,3.95316615 1.3548232,3.90041344 C6.69122305,3.16238775 12.2104463,5.72268646 14.9489389,10.7224136 C16.369601,13.2970528 16.8336992,16.1426259 16.4713897,18.8299408 C16.3978641,19.3753935 15.643939,19.4829476 15.4067275,18.9846138 C13.2936204,14.5446799 9.46533124,10.6962933 6.26863291,9.69347979 C9.34002471,10.6624906 12.9192651,15.7626015 14.629389,20.5554152 C14.8482974,21.1684733 14.3616721,21.8102637 13.7011403,21.773849 C9.70692306,21.5536192 5.35389004,18.5712989 2.73027484,13.7897529" id="Fill-2"></path>
                    <path d="M53.2248998,1.56418565 C50.4658005,0.602842754 47.6282171,0.136583864 44.8260781,0.136583864 C37.4566652,0.136583864 30.3288823,3.3604455 25.4909139,9.28021401 C25.1663944,9.67567437 24.563737,10.4848004 24.563737,10.4848004 C23.6656246,11.6570218 22.5664408,13.2049811 21.4517627,15.0922676 C21.4597124,15.0740623 21.4676621,15.0558569 21.4754598,15.0376516 C21.4657886,15.0588912 21.456016,15.0801307 21.4461422,15.101876 C19.0713623,18.8890916 16.0066304,25.1143052 15.775026,33.0249284 L20.1586976,27.3328783 C24.6494375,19.8665652 23.5512403,21.2527511 24.9607658,19.6198336 C30.9280965,12.7043343 38.5124042,10.4610324 41.8112722,9.70045386 C39.7018195,10.4423213 37.3407111,11.4931738 34.9097264,13.0062395 C27.7406254,17.4675583 23.76254,23.5810114 21.7171405,27.5333393 C21.4737382,28.0036944 21.7432682,28.5772131 22.2619221,28.6862428 C23.6069387,28.9689818 25.2978428,29.2087359 27.2303262,29.2087359 C28.5341766,29.2087359 29.947601,29.0996556 31.4394084,28.8209117 C39.9620833,27.2285516 44.8832956,21.2492112 46.8489449,18.8607722 C52.0283956,12.5672886 53.3621206,5.81058034 53.7590987,2.41022808 C53.8021384,2.0380301 53.5793446,1.68757737 53.2248998,1.56418565 Z" id="Fill-3"></path>
                </g>
                <path d="M14.1403325,76 L14.1403325,58.5925371 L22.7259137,58.5925371 C26.8217873,58.5925371 31.705329,58.0411695 35.8012026,54.0240627 C39.8970762,50.0069559 40.4484438,45.1234143 40.4484438,40.9487739 C40.4484438,36.537833 39.6607758,32.1268922 35.5649022,28.1885522 C31.5477954,24.328979 26.8217873,23.4625442 22.2533129,23.4625442 L0.513676023,23.4625442 L0.513676023,76 L14.1403325,76 Z M18.7088069,47.5651851 L14.1403325,47.5651851 L14.1403325,34.4898962 L18.7875737,34.4898962 C20.5204433,34.4898962 23.0409809,34.7261966 24.6163169,36.3802994 C26.0341193,37.7981018 26.1916529,39.688505 26.1916529,41.1063075 C26.1916529,42.3665763 26.1128861,44.4932799 24.4587833,45.9110823 C22.8046805,47.4076515 20.1266093,47.5651851 18.7088069,47.5651851 Z M59.8182151,77.181502 C63.2839543,77.181502 67.8524287,76.1575336 70.7668003,72.1404268 L70.7668003,76 L83.3694884,76 L83.3694884,40.7912403 L70.7668003,40.7912403 L70.7668003,44.1782127 C69.2702311,42.5241099 65.8832587,39.6097382 60.2120491,39.6097382 C55.1709739,39.6097382 50.5237326,41.5789083 47.5305942,44.5720467 C44.6949894,47.4076515 42.095685,52.0548927 42.095685,58.6713039 C42.095685,63.9486795 43.7497878,67.9657864 47.1367602,71.5890592 C51.3901675,76.0787668 56.0374087,77.181502 59.8182151,77.181502 Z M60.1264207,66.4692172 C57.9997171,66.4692172 55.7942467,65.366482 54.4552111,64.1062131 C52.8798751,62.6096439 52.0134403,60.4041735 52.0134403,58.3562367 C52.0134403,56.5446003 52.8011083,54.2603631 54.5339779,52.6062603 C56.3456143,50.8733907 58.4723179,50.3220231 60.0476539,50.3220231 C62.7257251,50.3220231 64.5373615,51.5035251 65.7188635,52.6062603 C67.6880335,54.4966635 68.1606343,56.7021339 68.1606343,58.3562367 C68.1606343,61.1918415 66.9003655,62.9247111 65.7976303,64.0274463 C64.2222943,65.6027824 62.1743575,66.4692172 60.1264207,66.4692172 Z M103.00639,77.181502 C105.920762,77.181502 111.907039,76.8664348 116.002912,72.7705612 C117.735782,71.1164584 119.547418,68.2808536 119.547418,64.0274463 C119.547418,61.4281419 118.602217,58.6713039 116.869347,57.0172011 C115.845379,55.9932327 113.324841,54.7329639 111.670738,54.2603631 L109.386501,53.6302287 C107.417331,53.0788611 106.393362,53.0788611 105.21186,52.6062603 C104.424192,52.2911931 103.715291,51.7398255 103.715291,50.6370903 C103.715291,49.8494223 104.109125,49.2980547 104.818026,48.9042207 C105.605694,48.4316199 106.472129,48.1953195 107.732398,48.1953195 C110.016635,48.1953195 112.61594,49.1405211 114.348809,49.9281891 L118.602217,41.8939755 C116.55428,41.0275407 112.537173,39.6097382 107.338564,39.6097382 C102.139955,39.6097382 97.4139473,41.1063075 94.735876,43.8631455 C92.766706,45.9110823 91.4276704,49.0617543 91.4276704,52.4487267 C91.4276704,55.1267979 92.372872,57.0959679 93.7119076,58.5137703 C95.6023108,60.5617071 98.1228485,61.1918415 99.8557181,61.5856755 L103.163924,62.3733435 C104.424192,62.6884107 105.684461,62.9247111 106.472129,63.6336123 C107.023497,64.1062131 107.102264,64.6575808 107.102264,65.2089484 C107.102264,65.8390828 107.023497,66.3116836 106.472129,66.8630512 C105.684461,67.5719524 104.187892,67.8082528 103.24269,67.8082528 C101.903655,67.8082528 99.9344849,67.4931856 98.3591489,66.941818 C96.6262792,66.3904504 94.8146428,65.4452488 93.3180736,64.3425136 L88.828366,73.0856284 C94.8934096,76.787668 99.8557181,77.181502 103.00639,77.181502 Z M136.978849,77.181502 C139.893221,77.181502 145.879498,76.8664348 149.975371,72.7705612 C151.708241,71.1164584 153.519877,68.2808536 153.519877,64.0274463 C153.519877,61.4281419 152.574676,58.6713039 150.841806,57.0172011 C149.817838,55.9932327 147.2973,54.7329639 145.643197,54.2603631 L143.35896,53.6302287 C141.38979,53.0788611 140.365822,53.0788611 139.18432,52.6062603 C138.396652,52.2911931 137.687751,51.7398255 137.687751,50.6370903 C137.687751,49.8494223 138.081585,49.2980547 138.790486,48.9042207 C139.578154,48.4316199 140.444589,48.1953195 141.704857,48.1953195 C143.989095,48.1953195 146.588399,49.1405211 148.321269,49.9281891 L152.574676,41.8939755 C150.526739,41.0275407 146.509632,39.6097382 141.311023,39.6097382 C136.112415,39.6097382 131.386407,41.1063075 128.708335,43.8631455 C126.739165,45.9110823 125.40013,49.0617543 125.40013,52.4487267 C125.40013,55.1267979 126.345331,57.0959679 127.684367,58.5137703 C129.57477,60.5617071 132.095308,61.1918415 133.828177,61.5856755 L137.136383,62.3733435 C138.396652,62.6884107 139.656921,62.9247111 140.444589,63.6336123 C140.995956,64.1062131 141.074723,64.6575808 141.074723,65.2089484 C141.074723,65.8390828 140.995956,66.3116836 140.444589,66.8630512 C139.656921,67.5719524 138.160351,67.8082528 137.21515,67.8082528 C135.876114,67.8082528 133.906944,67.4931856 132.331608,66.941818 C130.598739,66.3904504 128.787102,65.4452488 127.290533,64.3425136 L122.800825,73.0856284 C128.865869,76.787668 133.828177,77.181502 136.978849,77.181502 Z M170.581443,76 L170.581443,40.7912403 L157.978755,40.7912403 L157.978755,76 L170.581443,76 Z M201.615563,76 L219.968227,40.7912403 L205.947737,40.7912403 L197.362155,58.8288375 L188.934108,40.7912403 L174.83485,40.7912403 L193.029981,76 L201.615563,76 Z" id="Passiv" fill="#1B1D23" fill-rule="nonzero"></path>
            </g>
        </g>
    </g>
</svg>