<?xml version="1.0" encoding="UTF-8"?>
<svg width="766px" height="805px" viewBox="0 0 766 805" version="1.1" xmlns="http://www.w3.org/2000/svg" xmlns:xlink="http://www.w3.org/1999/xlink">
    <!-- Generator: Sketch 61.2 (89653) - https://sketch.com -->
    <title>portfolios@2x</title>
    <desc>Created with Sketch.</desc>
    <g id="Page-1" stroke="none" stroke-width="1" fill="none" fill-rule="evenodd">
        <g id="Artboard" transform="translate(-1772.000000, -868.000000)">
            <g id="portfolios" transform="translate(1778.000000, 875.000000)">
                <g id="AdobeStock_303478322" transform="translate(0.540691, 0.000000)" stroke="#FFFFFF" stroke-width="13">
                    <path d="M604.834891,0 C523.266406,0 457.14461,66.1289421 457.14461,147.706243 C457.14461,229.283544 523.266406,295.412486 604.834891,295.412486 C686.398393,295.412486 752.525172,229.283544 752.525172,147.706243 C752.525172,66.1289421 686.398393,0 604.834891,0 Z" id="Stroke-3"></path>
                    <path d="M423.198387,495.587514 C341.630177,495.587514 275.507607,561.716456 275.507607,643.293757 C275.507607,724.866075 341.630177,791 423.198387,791 C504.766597,791 570.88817,724.866075 570.88817,643.293757 C570.88817,561.716456 504.766597,495.587514 423.198387,495.587514 Z" id="Stroke-4"></path>
                    <path d="M148.096688,192.238573 C66.5299725,192.238573 0.406904871,258.367515 0.406904871,339.944816 C0.406904871,421.517134 66.5299725,487.651059 148.096688,487.651059 C229.663403,487.651059 295.787467,421.517134 295.787467,339.944816 C295.787467,258.367515 229.663403,192.238573 148.096688,192.238573 Z" id="Stroke-5"></path>
                    <line x1="283.443205" y1="283.06689" x2="467.725406" y2="204.584169" id="Stroke-10"></line>
                    <line x1="247.292151" y1="450.61427" x2="324.002924" y2="534.38796" id="Stroke-11"></line>
                    <line x1="473.897537" y1="505.287625" x2="553.253509" y2="286.594203" id="Stroke-12"></line>
                    <path d="M69.2535379,430.332219 C69.0743349,429.336228 68.9294791,428.290437 68.8115038,427.209787 C68.0474019,420.193031 68.1350123,413.450172 69.1076866,406.981211 C70.0913121,400.442531 71.972944,394.187708 74.7844405,388.221722 C77.5859813,382.275657 81.3029509,376.638348 85.9672077,371.309796 C90.5567965,366.065904 96.0921792,361.105869 102.605712,356.439652 C103.396196,355.871937 104.205597,355.423741 105.091158,355.095064 L105.091158,355.075144 C106.222129,354.661808 107.36405,354.49249 108.576657,354.587109 C111.774436,354.836107 112.191581,356.001416 114.382338,357.525282 C133.322108,370.702242 163.071803,371.150438 181.149904,357.156765 C182.036959,356.200614 183.018096,355.51836 184.10327,355.075144 C185.327326,354.572169 186.570796,354.407831 187.857573,354.537309 C188.849164,354.631929 189.766584,354.900846 190.649656,355.304222 C191.338095,355.622939 191.958336,355.991456 192.555182,356.414752 C198.621205,360.702493 203.933081,365.358751 208.455967,370.398465 C213.024151,375.482998 216.785423,380.960949 219.704442,386.837295 C222.624953,392.723601 224.691264,398.988384 225.865044,405.661523 C227.030859,412.284863 227.316091,419.271739 226.6844,426.627132 C226.579865,427.847221 226.403151,429.08225 226.154755,430.332219" id="Stroke-19" stroke-linecap="round" stroke-linejoin="round"></path>
                    <path d="M147.65607,252.202899 C123.307648,252.202899 103.569668,271.941903 103.569668,296.294314 C103.569668,320.646726 123.307648,340.38573 147.65607,340.38573 C172.004493,340.38573 191.74297,320.646726 191.74297,296.294314 C191.74297,271.941903 172.004493,252.202899 147.65607,252.202899 Z" id="Stroke-20" stroke-linecap="round" stroke-linejoin="round"></path>
                    <path d="M525.109429,236.329989 C524.930226,235.333998 524.785867,234.288207 524.666398,233.207557 C523.904783,226.190801 523.989407,219.447943 524.965071,212.978982 C525.945713,206.440301 527.82735,200.185478 530.639851,194.219493 C533.442395,188.273427 537.160869,182.636118 541.820162,177.307567 C546.414742,172.063675 551.945164,167.10364 558.461205,162.437422 C559.252687,161.869708 560.059103,161.421512 560.945165,161.092835 L560.945165,161.072915 C562.080121,160.659579 563.220055,160.49026 564.434657,160.584879 C567.630454,160.833877 568.048595,161.999186 570.238861,163.523052 C589.179683,176.700012 618.927475,177.148208 637.007124,163.154536 C637.893186,162.198385 638.873828,161.516131 639.959005,161.072915 C641.183562,160.569939 642.428032,160.405601 643.712324,160.53508 C644.702921,160.629699 645.623829,160.898616 646.504913,161.301993 C647.19186,161.62071 647.814094,161.989226 648.41144,162.412523 C654.474494,166.700264 659.790866,171.356521 664.310778,176.396235 C668.880469,181.480769 672.643744,186.958719 675.56078,192.835065 C678.482794,198.716392 680.548613,204.986155 681.718414,211.659294 C682.888215,218.282633 683.171954,225.26951 682.539764,232.624903 C682.435228,233.844992 682.261002,235.08002 682.012109,236.329989" id="Stroke-21" stroke-linecap="round" stroke-linejoin="round"></path>
                    <path d="M603.512291,59.0824972 C579.162512,59.0824972 559.42564,78.8215017 559.42564,103.173913 C559.42564,127.526324 579.162512,147.265329 603.512291,147.265329 C627.857089,147.265329 647.598942,127.526324 647.598942,103.173913 C647.598942,78.8215017 627.857089,59.0824972 603.512291,59.0824972 Z" id="Stroke-22" stroke-linecap="round" stroke-linejoin="round"></path>
                    <path d="M345.235892,732.799331 C345.056689,731.808294 344.91233,730.762476 344.792861,729.676818 C344.031247,722.659879 344.115871,715.916844 345.091534,709.452694 C346.072174,702.908862 347.953809,696.653876 350.766306,690.692714 C353.568847,684.746493 357.287316,679.109037 361.95158,673.780347 C366.541177,668.536317 372.076569,663.576153 378.587623,658.904833 C379.379105,658.337104 380.18552,657.888896 381.07158,657.565191 L381.07158,657.54527 C382.206535,657.131923 383.346467,656.95762 384.561068,657.052242 C387.75686,657.306226 388.175001,658.471566 390.365264,659.995472 C409.306061,673.172776 439.053814,673.616004 457.133439,659.626946 C458.0195,658.67077 459.000141,657.988498 460.085316,657.54029 C461.309872,657.037302 462.55434,656.877939 463.838631,657.002441 C464.829227,657.102043 465.750133,657.365987 466.631216,657.774354 C467.318162,658.0881 467.940396,658.461606 468.53774,658.884913 C474.605764,663.172766 479.917152,667.829145 484.437058,672.864011 C489.006743,677.953658 492.770013,683.426771 495.687045,689.308251 C498.609055,695.189731 500.674871,701.459658 501.849648,708.132971 C503.01447,714.756484 503.298209,721.738563 502.666019,729.099128 C502.561484,730.319249 502.387258,731.55431 502.138365,732.799331" id="Stroke-23" stroke-linecap="round" stroke-linejoin="round"></path>
                    <path d="M422.757022,556.433668 C398.407242,556.433668 378.670371,576.172672 378.670371,600.525084 C378.670371,624.872513 398.407242,644.616499 422.757022,644.616499 C447.10182,644.616499 466.843673,624.872513 466.843673,600.525084 C466.843673,576.172672 447.10182,556.433668 422.757022,556.433668 Z" id="Stroke-24" stroke-linecap="round" stroke-linejoin="round"></path>
                </g>
                <g id="Group-10" transform="translate(345.540691, 281.000000)" fill="#00E8C0">
                    <path d="M98.0845387,73.7326461 C106.403155,49.2327047 107.046391,24.7091348 101.492419,4.40159739 C100.756288,1.70672927 98.2281267,-0.099849087 95.3901897,0.00427674866 C55.618756,1.47298341 18.7533457,27.1781797 5.25141822,67.0713804 C-1.77757186,87.6280263 -1.49936758,108.930302 4.58789455,128.021759 C5.82334758,131.896828 11.4464643,131.713242 12.5322141,127.782806 C22.2032687,92.7647891 45.1124148,59.8532531 67.0812172,48.4586594 C45.9806359,59.4466693 26.4909937,101.147913 20.2049487,138.217381 C19.3997018,142.959218 23.7642807,147.005898 28.5230373,145.894336 C57.2990676,139.172531 85.1381566,111.890893 98.0845387,73.7326461" id="Fill-2"></path>
                    <path d="M82.3948198,174.724319 C97.7359057,172.017556 110.84655,165.351373 119.924616,156.696727 C121.129563,155.548692 121.342761,153.731256 120.458592,152.299482 C108.062685,132.237011 83.7445712,120.58661 58.7773554,125.016304 C45.8910397,127.262039 34.7471168,133.483598 26.4657017,142.065889 C24.7847593,143.807818 26.5246821,146.651234 28.9131,146.088883 C50.1918865,141.077423 74.2290883,143.484386 86.6531658,151.54663 C74.6970481,143.815491 47.0273606,145.677522 25.6567273,153.01755 C22.9227111,153.955875 22.0657297,157.358212 24.0420658,159.491715 C35.993023,172.392865 58.5041776,178.945065 82.3948198,174.724319" id="Fill-2"></path>
                </g>
            </g>
        </g>
    </g>
</svg>