<?xml version="1.0" encoding="utf-8"?>
<svg xmlns="http://www.w3.org/2000/svg" viewBox="0 0 514.4 184.09">
  <title>Asset 1</title>
  <g id="Layer_2">
    <g id="Layer_1-2">
      <g id="_Group_">
        <path id="_Path_" d="M236.59,61.63C247.13,42.35,260.92,27.72,273.53,21L260.92,1.15a1.94,1.94,0,0,0-3.54,0L188.25,109.76c-1,1.53-.28,2.79,1.53,2.79h32.45C221.71,98.51,226.58,80,236.59,61.63Z" style="fill:#6ebb1f" />
        <path id="_Path_2" d="M277.83,33.34c-6.79-3.71-21.41,10-32.65,30.56s-14.85,40.28-8.07,44c4.9,2.67,13.88-3.71,22.72-15.21V64.48c0-2.72,1-3,2.32-.57l7.36,13.88.25-.47C281,56.74,284.61,37,277.83,33.34Z" style="fill:#6ebb1f" />
        <path id="_Path_3" d="M330.05,109.76,302.14,65.91a130,130,0,0,1-10.72,25.66,139,139,0,0,1-7.87,12.71l4.38,8.27h40.59C330.34,112.55,331,111.29,330.05,109.76Z" style="fill:#6ebb1f" />
      </g>
      <path id="_Compound_Path_" d="M275.59,135.87a2.51,2.51,0,0,1-2.82,2.85H255.11V173c0,1.89-.93,2.83-2.8,2.83h-2.38a2.49,2.49,0,0,1-2.8-2.83V138.72H229.6a2.51,2.51,0,0,1-2.83-2.85V135a2.49,2.49,0,0,1,2.83-2.8h43.17a2.49,2.49,0,0,1,2.82,2.8Z" />
      <path id="_Compound_Path_2" d="M333.72,147.6v-3.89a11.58,11.58,0,0,0-11.54-11.55H286.85l-.12,0-.11,0h-1.39a3.31,3.31,0,0,0-3.3,3.3v37a3.3,3.3,0,0,0,3.3,3.29h1.39a3.31,3.31,0,0,0,3.3-3.29V159.15H316.6l8.78,15.21a3.3,3.3,0,0,0,4.5,1.2l.18-.1a3.31,3.31,0,0,0,1.2-4.51l-6.93-12A11.57,11.57,0,0,0,333.72,147.6Zm-7.94,0a5,5,0,0,1-4.94,4.94h-31V138.73h31a5,5,0,0,1,4.94,5Z" />
      <g id="_Group_2">
        <g id="_Group_3">
          <path id="_Path_4" d="M115.92,135.48a3.3,3.3,0,0,0-3.3-3.3h-1.39a3.31,3.31,0,0,0-3.3,3.3v28.9a5,5,0,0,1-4.94,4.94H74.9a5,5,0,0,1-5-4.94v-2a2.72,2.72,0,0,0,0-.49V135.48a3.3,3.3,0,0,0-3.3-3.3H65.31a3.31,3.31,0,0,0-3.3,3.3v28.87a11.58,11.58,0,0,0,11.55,11.54h30.77a11.57,11.57,0,0,0,11.54-11.54v-2a3.87,3.87,0,0,0,0-.49Z" style="fill:#6ebb1f" />
        </g>
      </g>
      <path id="_Path_5" d="M473.17,143.68v5.24H507a2.4,2.4,0,0,1,2.39,2.39v1.79a2.4,2.4,0,0,1-2.39,2.39H473.17v8.84a5,5,0,0,0,4.94,4.95H512a2.4,2.4,0,0,1,2.39,2.39v1.79a2.4,2.4,0,0,1-2.39,2.39H476.77a11.58,11.58,0,0,1-11.54-11.55V143.71a11.58,11.58,0,0,1,11.54-11.55H512a2.4,2.4,0,0,1,2.39,2.4v1.78a2.4,2.4,0,0,1-2.39,2.39h-33.9A5,5,0,0,0,473.17,143.68Z" />
      <path id="_Path_6" d="M131.85,143.71V149H165.7a2.4,2.4,0,0,1,2.39,2.39v1.79a2.4,2.4,0,0,1-2.39,2.39H131.85v8.84a5,5,0,0,0,5,4.95h33.89a2.4,2.4,0,0,1,2.39,2.39v1.79a2.4,2.4,0,0,1-2.39,2.39H135.45a11.58,11.58,0,0,1-11.54-11.55V143.74a11.58,11.58,0,0,1,11.54-11.55h35.24a2.4,2.4,0,0,1,2.39,2.4v1.78a2.4,2.4,0,0,1-2.39,2.39H136.8A5,5,0,0,0,131.85,143.71Z" style="fill:#6ebb1f" />
      <path id="_Path_7" d="M217.21,148.94H192.1a5,5,0,0,1-4.95-4.95v-.32a5,5,0,0,1,4.95-4.95h25.35a2.39,2.39,0,0,0,2.39-2.39v-1.78a2.39,2.39,0,0,0-2.39-2.39H190.76a11.57,11.57,0,0,0-11.54,11.54V144a11.57,11.57,0,0,0,11.54,11.54h1.08v0l.23,0H215.9a5,5,0,0,1,4.91,4.94v4a5,5,0,0,1-4.94,4.95h-4.52a1.87,1.87,0,0,0-.41,0H181.6a2.35,2.35,0,0,0-2.38,2.34v1.8a2.39,2.39,0,0,0,2.38,2.39h10.24v0h25.37a11.58,11.58,0,0,0,11.54-11.55v-3.89A11.58,11.58,0,0,0,217.21,148.94Z" style="fill:#6ebb1f" />
      <path id="_Compound_Path_3" d="M54,164.3V143.71a11.58,11.58,0,0,0-11.54-11.55H11.54A11.58,11.58,0,0,0,0,143.71V164.3a11.58,11.58,0,0,0,11.54,11.55H41.71a5,5,0,0,0,.21.48l3.54,6.12a3.3,3.3,0,0,0,4.5,1.2l1.21-.69a3.32,3.32,0,0,0,1.21-4.51l-2.89-5A11.54,11.54,0,0,0,54,164.3Zm-7.93,0a5,5,0,0,1-5,4.95H12.89a5,5,0,0,1-4.95-4.95V143.68a5,5,0,0,1,5-5H41.14a5,5,0,0,1,5,5Z" style="fill:#6ebb1f" />
      <path id="_Compound_Path_4" d="M397.51,171l-.78-1.18h0l-24.55-36.44c-2.65-3.93-7-3.93-9.62,0l-23.36,34.7h0l-1.85,2.9a2.82,2.82,0,0,0,1.11,4.2l.91.45a3.89,3.89,0,0,0,4.8-1.28l7.45-11.22h31.39l7.59,11.27a3.9,3.9,0,0,0,4.8,1.27l.95-.47A2.82,2.82,0,0,0,397.51,171Zm-41.43-14.44,10.07-14.94h0l1.23-1.83,1,1.46c.07.13.13.26.21.38l10.06,14.93Z" />
      <path id="_Compound_Path_5" d="M445.3,132.15H405.24a2.4,2.4,0,0,0-2.39,2.39v38.9a2.4,2.4,0,0,0,2.39,2.4H445.3a11.58,11.58,0,0,0,11.54-11.54v-20.6A11.58,11.58,0,0,0,445.3,132.15Zm3.6,32.16a5,5,0,0,1-4.95,4.95H410.79V138.71H444a5,5,0,0,1,4.95,4.95Z" />
    </g>
  </g>
</svg>