<?xml version="1.0" encoding="UTF-8"?>
<svg width="773px" height="804px" viewBox="0 0 773 804" version="1.1" xmlns="http://www.w3.org/2000/svg" xmlns:xlink="http://www.w3.org/1999/xlink">
    <!-- Generator: Sketch 61.2 (89653) - https://sketch.com -->
    <title>trades@2x</title>
    <desc>Created with Sketch.</desc>
    <g id="Page-1" stroke="none" stroke-width="1" fill="none" fill-rule="evenodd">
        <g id="Artboard" transform="translate(-631.000000, -882.000000)">
            <g id="trades" transform="translate(609.000000, 882.000000)">
                <g id="Group-2" transform="translate(32.000000, 0.000000)" stroke="#FFFFFF" stroke-linejoin="round" stroke-width="20">
                    <line x1="366.920907" y1="804" x2="366.920907" y2="722.350259" id="Stroke-104"></line>
                    <polyline id="Stroke-105" points="619.133333 117.778767 619.133333 486.034925 753 486.034925 502 787.336788 251 486.034925 368.133333 486.034925 368.133333 352.12466 502 352.12466 251 50.8227979 0 352.12466 133.866667 352.12466 133.866667 461.636075"></polyline>
                    <line x1="383.996681" y1="118.308808" x2="383.996681" y2="33.3264249" id="Stroke-106"></line>
                    <line x1="535.596239" y1="0" x2="535.596239" y2="219.121244" id="Stroke-108"></line>
                </g>
                <path d="M308.325405,517.15152 C288.292243,510.160292 267.689509,506.767164 247.344374,506.767164 C193.838215,506.763175 142.088176,530.199379 106.964963,573.23823 C104.60898,576.113368 100.233781,581.996038 100.233781,581.996038 C93.713606,590.518543 85.7337408,601.772854 77.641562,615.494339 C77.6992715,615.361976 77.7569809,615.229613 77.8135874,615.09725 C77.7433799,615.251673 77.6724371,615.406096 77.6007593,615.564197 C60.3605499,643.099009 38.1122151,688.359651 36.4349232,745.876106 L68.259804,704.492705 C100.861101,650.209046 92.8883115,660.287136 103.121389,648.415277 C146.44388,598.137276 201.509082,581.830775 225.460341,576.302544 C210.144909,581.695374 193.002478,589.334637 175.352957,600.334524 C123.303596,632.768013 94.4237305,677.215571 79.5751014,705.951061 C77.8081164,709.370788 79.7653689,713.540875 83.5311528,714.33389 C93.296897,716.390357 105.573959,718.134477 119.604896,718.135523 C129.071597,718.136229 139.333808,717.343893 150.165033,715.318008 C212.043672,703.744885 247.771251,660.272944 262.041697,642.908139 C299.644064,597.152264 309.324009,548.026293 312.204454,523.303217 C312.516745,520.597062 310.898944,518.048869 308.325405,517.15152 Z" id="Fill-3" fill="#00E8C0" transform="translate(174.338903, 626.321635) scale(-1, 1) rotate(-23.000000) translate(-174.338903, -626.321635) "></path>
            </g>
        </g>
    </g>
</svg>