<svg width="152" height="132" viewBox="0 0 152 132" fill="none" xmlns="http://www.w3.org/2000/svg">
<path d="M13.7544 49.8996C52.8136 31.1489 80.8703 63.2853 99.955 89.6874L67.3286 105.35C66.8297 104.163 66.048 102.682 65.4929 101.526C46.9593 91.3311 18.6702 71.2971 13.7544 49.8996Z" fill="#04A287"/>
<path d="M78.4379 85.7432C76.4925 83.4242 74.4025 81.0949 72.1782 78.7936C60.6701 66.9034 45.5296 55.9205 27.0342 52.3574L26.1505 51.6933L28.8147 51.7244C46.5503 55.5807 61.1494 66.1226 72.3713 77.5856C74.5396 79.7962 76.5819 82.0409 78.4919 84.281C78.812 84.6507 79.1281 85.0225 79.4375 85.3919C84.1593 91.0594 88.4782 97.0508 92.3623 103.322L91.4477 103.726C87.8043 97.8557 83.7778 92.2321 79.3945 86.8917C79.084 86.507 78.764 86.1263 78.4379 85.7432Z" fill="white"/>
<path d="M151.028 17.3671C101.358 4.92788 75.5103 52.7501 58.9077 90.9328L100.398 101.323C100.725 99.7071 101.319 97.6463 101.718 96.0523C121.171 78.1937 149.898 45.3686 151.028 17.3671Z" fill="#04A287"/>
<path d="M85.1492 78.0424C87.0812 74.7282 89.1916 71.3702 91.4758 68.0183C103.297 50.6964 119.85 33.7281 142.186 25.3068L143.147 24.2877L139.826 24.8985C118.502 33.5227 102.531 49.8241 90.9751 66.551C88.7416 69.7775 86.6726 73.0197 84.7679 76.2277C84.4474 76.7582 84.1324 77.2904 83.8254 77.8182C79.1444 85.9108 75.0364 94.3214 71.5315 102.988L72.7605 103.296C76.0509 95.182 79.8727 87.2936 84.201 79.6823C84.5062 79.1352 84.8241 78.5909 85.1492 78.0424Z" fill="white"/>
<g style="mix-blend-mode:multiply" opacity="0.25">
<g style="mix-blend-mode:multiply" opacity="0.25">
<path d="M57.2183 68.3652C57.2269 68.5541 57.2493 68.742 57.2852 68.9276C57.5392 70.2405 58.5012 71.4253 59.6795 71.8782C59.7717 71.9136 59.8611 71.9434 59.9506 71.9738C58.9692 70.8262 58.0568 69.6212 57.2183 68.3652Z" fill="#FCBC0D"/>
</g>
</g>
<path fill-rule="evenodd" clip-rule="evenodd" d="M100.573 83.5814L86.8899 109.769C97.1994 115.44 109.765 114.365 118.867 107.034C127.969 99.7022 131.867 87.5157 128.787 76.0215L100.573 83.5814Z" fill="#00CEAA"/>
<path fill-rule="evenodd" clip-rule="evenodd" d="M100.573 83.5804L112.606 56.5511C98.207 49.7739 81.2494 55.8113 74.3019 70.1885C67.3543 84.5657 72.9271 102.088 86.8899 109.768L100.573 83.5804Z" fill="#2A2D34"/>
<path fill-rule="evenodd" clip-rule="evenodd" d="M100.573 83.5808L128.787 76.0209C126.485 67.4299 120.552 60.2916 112.606 56.5516L100.573 83.5808Z" fill="#033EBC"/>
<path fill-rule="evenodd" clip-rule="evenodd" d="M100.573 83.581L128.787 76.0211C128.447 74.7506 128.027 73.5118 127.533 72.3111C100.381 83.5102 100.573 83.581 100.573 83.581Z" fill="#F6BD16"/>
<path d="M96.9022 92.582C93.0321 94.5422 91.5599 98.0524 91.5599 98.0524C91.5599 98.0524 95.1097 99.5532 99.2988 97.0712C102.363 95.2558 104.201 91.6482 104.201 91.6482C104.201 91.6482 100.15 90.9365 96.9022 92.582Z" fill="white"/>
<path d="M92.5743 87.8547C92.6789 83.7573 90.3676 80.958 90.3676 80.958C90.3676 80.958 87.4652 83.2358 87.6579 87.8323C87.799 91.1943 90.0258 94.3416 90.0258 94.3416C90.0258 94.3416 92.4865 91.2933 92.5743 87.8547Z" fill="white"/>
<path d="M87.9016 53.6282C97.9374 49.3003 102.496 41.4255 102.496 41.4255C102.496 41.4255 94.1746 37.9608 83.2157 43.4561C75.2002 47.4756 69.7158 55.5619 69.7158 55.5619C69.7158 55.5619 79.4796 57.2601 87.9016 53.6282Z" fill="#006768"/>
<path d="M90.4986 47.0926C97.2018 41.8247 98.6204 34.4086 98.6204 34.4086C98.6204 34.4086 91.1211 32.7803 84.0132 39.1866C78.8143 43.8724 76.7258 51.615 76.7258 51.615C76.7258 51.615 84.8734 51.5132 90.4986 47.0926Z" fill="#033EBC"/>
<path d="M85.3181 46.602C86.4883 34.9519 80.4999 26.4858 80.4999 26.4858C80.4999 26.4858 71.747 32.3568 71.3182 45.4916C71.0046 55.0989 76.678 64.5388 76.678 64.5388C76.678 64.5388 84.3362 56.3788 85.3181 46.602Z" fill="#006768"/>
<path d="M77.9075 47.8225C72.8511 38.1332 64.6613 34.1678 64.6613 34.1678C64.6613 34.1678 61.8199 42.7223 68.1087 53.2459C72.7086 60.9431 81.1774 65.8159 81.1774 65.8159C81.1774 65.8159 82.1508 55.9537 77.9075 47.8225Z" fill="#00CEAA"/>
<path d="M73.4968 48.6016C75.1819 56.9587 81.1649 61.5648 81.1649 61.5648C81.1649 61.5648 85.9956 55.6019 83.4762 46.3707C81.6334 39.6187 75.6606 34.2676 75.6606 34.2676C75.6606 34.2676 72.0825 41.5884 73.4968 48.6016Z" fill="#04A286"/>
<path d="M89.0418 99.2599L89.9373 93.2236L90.303 93.278L89.4991 98.6995L93.5204 97.2309L93.6475 97.5783L89.0418 99.2599Z" fill="white"/>
<path d="M67.0991 95.189C71.138 96.7729 72.9372 100.127 72.9372 100.127C72.9372 100.127 69.5458 101.958 65.14 99.8858C61.9175 98.3698 59.7448 94.9533 59.7448 94.9533C59.7448 94.9533 63.7096 93.8598 67.0991 95.189Z" fill="white"/>
<path d="M70.958 90.0704C70.4644 86.0017 72.4991 82.9951 72.4991 82.9951C72.4991 82.9951 75.605 84.9868 75.8498 89.5807C76.029 92.941 74.1115 96.2858 74.1115 96.2858C74.1115 96.2858 71.3723 93.4854 70.958 90.0704Z" fill="white"/>
<path d="M75.5581 101.089L70.8136 99.8526L70.9068 99.4948L75.0496 100.574L73.7338 95.2538L74.0931 95.165L75.5581 101.089Z" fill="#FCFFFF"/>
<path d="M101.627 98.6348H60.2811V110.795H101.627V98.6348Z" fill="#2A2D34"/>
<path d="M84.711 95.1748H77.558L77.6269 94.0043L78.5828 77.6175L78.5984 77.3574H83.6705L84.6423 94.0043L84.711 95.1748Z" fill="#FDBC00"/>
<path d="M84.6417 94.0041H82.3693V77.8776L83.2797 77.3574H83.6698L84.6417 94.0041Z" fill="#F59E01"/>
<path d="M80.1594 77.6182L79.7693 94.0049H77.6273L78.5832 77.6182H80.1594Z" fill="#FCD309"/>
<path d="M66.0785 76.0004C65.9907 76.0004 65.9045 75.9982 65.8201 75.9936C65.5616 75.9792 65.3117 75.8953 65.0968 75.7508C64.8819 75.6063 64.7099 75.4066 64.599 75.1725C64.488 74.9385 64.4422 74.6789 64.4664 74.4211C64.4906 74.1633 64.5838 73.9167 64.7364 73.7074L64.7247 73.6992C64.7659 73.7269 65.7412 74.374 67.2107 73.8398C67.497 73.7357 68.0209 72.9751 68.0179 72.0444C68.0151 71.0751 67.4229 70.3518 66.3052 69.9524C56.0165 66.2778 54.6978 61.378 55.4033 57.9145C56.0665 54.6584 58.3037 52.4217 61.873 51.4461C63.5175 51.0112 65.2219 50.8472 66.9192 50.9606C67.1754 50.9862 67.411 51.1121 67.5747 51.3108C67.7385 51.5095 67.817 51.7649 67.7932 52.0213C67.7694 52.2776 67.6452 52.5142 67.4477 52.6794C67.2502 52.8445 66.9954 52.9249 66.7389 52.903C66.7176 52.9012 64.5821 52.7172 62.3391 53.3411C59.5161 54.1266 57.8257 55.7964 57.3151 58.3039C56.3159 63.2088 62.0097 66.3466 66.9616 68.1152C68.8675 68.7959 69.9637 70.2259 69.969 72.0385C69.9735 73.6482 69.0548 75.2446 67.877 75.6728C67.3013 75.8866 66.6926 75.9975 66.0785 76.0004Z" fill="#FFB431"/>
<path d="M96.4604 76.0004C95.8462 75.9976 95.2373 75.8868 94.6615 75.673C93.4838 75.2448 92.5653 73.6484 92.5696 72.0387C92.5748 70.2261 93.671 68.7962 95.5769 68.1154C100.529 66.3468 106.223 63.209 105.223 58.3042C104.713 55.7987 102.979 54.1293 100.069 53.3424C97.7559 52.7164 95.5492 52.9014 95.5273 52.9035C95.2704 52.9253 95.0153 52.8446 94.8177 52.6789C94.6202 52.5131 94.4963 52.276 94.4732 52.0192C94.45 51.7624 94.5295 51.5068 94.6942 51.3085C94.8589 51.1101 95.0955 50.985 95.3521 50.9606C97.091 50.8474 98.8368 51.0108 100.524 51.4445C104.185 52.4183 106.471 54.6556 107.135 57.9148C107.841 61.3782 106.522 66.278 96.2335 69.9526C95.1158 70.3517 94.5236 71.075 94.5208 72.0446C94.5182 72.9753 95.0421 73.736 95.3279 73.8401C96.7972 74.374 97.7732 73.7272 97.814 73.6994L97.8023 73.7076C97.9548 73.9169 98.0481 74.1635 98.0723 74.4213C98.0965 74.6791 98.0507 74.9387 97.9397 75.1727C97.8288 75.4067 97.6568 75.6065 97.4419 75.751C97.227 75.8955 96.9772 75.9794 96.7186 75.9938C96.6346 75.9981 96.5485 76.0003 96.4604 76.0004Z" fill="#FFB431"/>
<path d="M96.9359 47.7061C96.9359 47.7061 96.9321 49.3252 96.9074 51.3762C96.8744 53.9981 96.8098 57.3274 96.6759 58.8907C95.8383 68.6902 91.0068 78.5808 83.1984 80.0361C83.1372 80.0478 83.0761 80.0582 83.0137 80.069C82.4143 80.1704 81.8074 80.2208 81.1995 80.2198C77.805 80.2198 74.8554 78.4785 72.4663 75.8175C72.2769 75.6082 72.0918 75.3923 71.9097 75.1712C71.423 74.5772 70.9676 73.9582 70.5455 73.3166C69.8094 72.1957 69.1578 71.0215 68.5959 69.8039C67.3992 67.2168 66.5466 64.4841 66.0599 61.6755C65.9003 60.7537 65.7879 59.8244 65.723 58.8911C65.5319 56.1001 65.463 47.7064 65.463 47.7064L96.9359 47.7061Z" fill="#FDBC00"/>
<path d="M96.9359 47.7061C96.9359 47.7061 96.9138 56.1037 96.6758 58.8908C95.8383 68.6903 91.0067 78.5808 83.1983 80.0362C83.1371 80.0479 83.0761 80.0583 83.0136 80.0691C82.4142 80.1704 81.8073 80.2209 81.1994 80.2199C77.537 80.2199 74.3924 78.1924 71.9097 75.1712C81.0082 75.7759 90.8623 72.2944 87.7216 47.7065L96.9359 47.7061Z" fill="#F39F00"/>
<path d="M77.8185 92.1836H79.8127V96.2153H74.0473L77.8185 92.1836Z" fill="#FCD309"/>
<path d="M84.4947 92.1836H82.5005V96.2153H88.5264L84.4947 92.1836Z" fill="#F59E01"/>
<path d="M79.8987 92.1836L78.1755 96.2153H84.4227L82.3697 92.1836H79.8987Z" fill="#FDBC00"/>
<path d="M88.7427 95.8252H74.3068V96.7355H88.7427V95.8252Z" fill="#56443A"/>
<path d="M64.7777 96.0938H98.013C98.1932 96.0938 98.366 96.1653 98.4934 96.2928C98.6209 96.4202 98.6925 96.593 98.6925 96.7732V98.8899H64.0982V96.7732C64.0982 96.593 64.1698 96.4202 64.2972 96.2928C64.4247 96.1653 64.5975 96.0938 64.7777 96.0938V96.0938Z" fill="#1B1C23"/>
<path d="M91.5387 96.0938H98.0123C98.1925 96.0938 98.3654 96.1653 98.4928 96.2928C98.6202 96.4202 98.6918 96.593 98.6918 96.7732V98.8899H91.5387V96.0938Z" fill="#352820"/>
<path d="M79.4344 58.5464V58.5481C78.95 58.5597 78.4893 58.7602 78.1508 59.1068C77.8122 59.4533 77.6226 59.9186 77.6224 60.4031C77.6223 59.9109 77.4267 59.439 77.0787 59.091C76.7307 58.743 76.2587 58.5474 75.7665 58.5473C76.2511 58.5471 76.7163 58.3575 77.0629 58.0189C77.4095 57.6804 77.6099 57.2197 77.6215 56.7354H77.6232C77.6342 57.2122 77.8286 57.6665 78.1659 58.0038C78.5032 58.3411 78.9575 58.5354 79.4344 58.5464Z" fill="white"/>
</svg>
